<?xml version="1.0" encoding="UTF-8"?>
<svg id="Layer_1" data-name="Layer 1" xmlns="http://www.w3.org/2000/svg" xmlns:xlink="http://www.w3.org/1999/xlink" viewBox="0 0 250 60">
  <defs>
    <style>
      .cls-1 {
        letter-spacing: -.05em;
      }

      .cls-2 {
        fill: url(#linear-gradient);
      }

      .cls-2, .cls-3, .cls-4, .cls-5 {
        stroke-width: 0px;
      }

      .cls-3 {
        fill: #54c7dd;
      }

      .cls-6 {
        fill: #010101;
        font-family: WixMadeforText-Bold, 'Wix Madefor Text';
        font-size: 23.92px;
        font-variation-settings: 'wght' 700;
        font-weight: 700;
      }

      .cls-7 {
        letter-spacing: -.05em;
      }

      .cls-8 {
        letter-spacing: -.15em;
      }

      .cls-9 {
        letter-spacing: -.07em;
      }

      .cls-10 {
        letter-spacing: -.05em;
      }

      .cls-4 {
        fill: #57b94b;
      }

      .cls-5 {
        fill: #1c449c;
      }

      .cls-11 {
        letter-spacing: -.1em;
      }
    </style>
    <linearGradient id="linear-gradient" x1="48.44" y1="9.03" x2="64.46" y2="55.93" gradientUnits="userSpaceOnUse">
      <stop offset="0" stop-color="#1ba3dd"/>
      <stop offset=".99" stop-color="#1c449c"/>
    </linearGradient>
  </defs>
  <text class="cls-6" transform="translate(93.97 26.54)"><tspan class="cls-10"><tspan x="0" y="0">Impuls</tspan></tspan><tspan class="cls-8" x="0" y="26.31">T</tspan><tspan class="cls-11" x="11.27" y="26.31">a</tspan><tspan class="cls-1" x="22.22" y="26.31">’lim </tspan><tspan class="cls-9" x="62.04" y="26.31">F</tspan><tspan class="cls-7" x="74.17" y="26.31">ondi</tspan></text>
  <path class="cls-2" d="m74.26,47.52s.03-.02.03-.02h.02c.84-.45,1.65-.93,2.44-1.44,2.4-1.55,4.57-3.43,6.46-5.56.57-.64,1.57.05,1.19.82-1.56,3.04-3.67,5.76-6.18,8.02-4.95,4.47-11.51,7.2-18.72,7.2h-.17s0,0,0,0c-13.1-.08-24.07-9.17-27.01-21.38-.51-2.11-.78-4.31-.78-6.58s.29-4.61.83-6.79c1.34-5.4,4.25-10.17,8.23-13.81.01,0,.03,0,.02.02-3.54,5.08-5.62,11.26-5.62,17.93,0,4.88,1.11,9.5,3.09,13.61,0,0,0,0,0,0,2.29,4.26,5.65,8.14,11.05,9.71,0,0,0,0,.01,0,.31.08,5.61,1.31,7.87-2.41,2.32-3.83,4.79-4.11,6.53-4.2,1.73-.09,2.47.75,4.14.75s4.2-.84,5.78-1.8c1.57-.96,3.01-1.79,2.95-.88-.06.92.48,1.76-1.9,3.45-2.38,1.69-8.41,2.23-6.83,4.27.92,1.19,3,.68,4.58.05,0,0,.02,0,.03,0"/>
  <g>
    <path class="cls-4" d="m46.39,28.48c-.52-.14-1.05-.26-1.57-.42-.21-.06-.59-.04-.35-.46.14-.26.02-.83.64-.55.15.07.31.08.47.12.38-.05.76-.08,1.04.27,2.26.38,4.43-.1,6.61-.65,1.36-.35,2.72-.67,4.15-.42.99.17,1.85.59,2.7,1.35-.63-1.83-1.45-3.4-2.54-4.83-.27-.35-.51-.83-.87-.98-.4-.17-.76.33-1.14.52-2.54,1.27-5.17,1.49-7.91.83-.25-.06-.48-.15-.28-.47.14-.22-.07-.71.55-.55,2.61.69,5.11.4,7.48-.93.14-.08.28-.17.47-.29-.96-.89-1.96-1.64-3.11-2.19-.2,0-.36-.04-.45-.24-1.17-.62-2.42-1.06-3.71-1.32-.6-.12-.34-.44-.31-.76.05-.47.32-.33.59-.26.73.19,1.45.38,2.15.66.28-.04.54-.01.71.25,1.42.62,2.75,1.38,3.98,2.33.17,0,.3.07.32.26.93.85,1.82,1.73,2.54,2.76.16.23.27.23.46.03,1.26-1.29,2.17-2.76,2.25-4.61.03-.68.49-.38.78-.42.47-.06.3.32.28.53-.18,2.12-1.14,3.86-2.66,5.31-.27.26-.29.41-.1.72.47.76.82,1.58,1.28,2.37-.08-.63-.1-1.28-.26-1.9-.22-.85,0-1.51.74-2.04.21.9.3,1.83.49,2.76.39-2.49.81-4.98,1.55-7.45.24.2.43.39.65.54.19.13.2.26.15.46-.6,2.26-1.01,4.57-1.29,6.89-.03.24-.05.49-.03.75,1.18-2.81,2.88-5.22,5.33-7.14-.56-.12-1.05-.2-1.54-.34-2.32-.63-3.75-2.16-4.44-4.43-.06-.2-.2-.46.19-.48.29-.02.65-.41.82.19.45,1.55,1.34,2.73,2.84,3.41.35-.07.63.07.88.29,1.29.33,2.57.56,3.8-.23.37-.23.79-.38,1.18-.57.17-.26.43-.29.71-.25.73-.3,1.5-.49,2.26-.7.28-.08.47-.06.48.3,0,.28.34.61-.25.74-1.31.29-2.58.71-3.77,1.35-.09.2-.25.25-.45.24-1.15.53-2.13,1.3-3.12,2.17,1.05.72,2.16,1.13,3.35,1.39,1.55.34,3.09.26,4.6-.16.62-.17.42.32.56.54.2.32-.02.41-.27.47-3.02.73-5.89.4-8.57-1.22-.34-.21-.5-.2-.76.11-1.37,1.62-2.37,3.44-3.13,5.57,1.98-1.77,4.14-1.6,6.37-1.05,1.79.44,3.57.95,5.44.9.54-.01,1.09.03,1.61-.2.34-.21.7-.28,1.09-.2.09-.01.19,0,.27-.04.55-.31.73-.03.86.47.07.27.02.36-.21.42-.58.15-1.15.3-1.73.45-.38.27-.78.35-1.21.14-2.36.14-4.6-.51-6.86-1.04-.72-.17-1.45-.29-2.19-.24-1.91.12-3.11,1.19-3.83,2.88-.6,1.41-.84,2.9-.77,4.43.02.45-.13.54-.55.54-.42,0-.57-.08-.55-.54.07-1.45-.16-2.87-.69-4.23-.96-2.46-2.86-3.48-5.46-2.98-1.52.29-3,.76-4.53,1.01-.99.16-1.98.17-2.98.17-.43.18-.83.12-1.21-.14Z"/>
    <path class="cls-3" d="m71.56,36.52c2.19.26,4.4.5,6.57,1,.65.15,1.3.33,1.95.48.26.06.54.05.41.49-.12.43-.36.23-.58.17-3.15-.84-6.35-1.39-9.62-1.34-2.73.03-5.39.41-7.76,1.94-.43.27-1.01.27-1.44,0-2.74-1.73-5.78-2-8.89-1.92-2.9.07-5.75.59-8.55,1.35-.23.06-.41.18-.52-.19-.11-.37.08-.4.35-.48,2.7-.75,5.45-1.17,8.23-1.37.12,0,.25-.03.37-.07-2.96-.13-5.88.17-8.75.9-.54.14-.76.03-.96-.47-.3-.76-.68-1.48-1.04-2.21-.13-.25-.16-.38.18-.48,6.78-1.97,13.25-1.54,19.27,2.46.36.24.71.68,1.07.69.33,0,.66-.46,1.01-.69,3.36-2.3,7.09-3.44,11.15-3.57,2.88-.09,5.68.33,8.46,1.23-.48,1.01-.95,1.99-1.4,2.97-.17.38-.45.14-.64.09-2.57-.66-5.19-.95-7.85-.97-.34,0-.67,0-1.01,0Z"/>
    <path class="cls-4" d="m58.9,14.11c.55,1.24,1.03,2.51,1.4,3.82.29,1.04.24,1.46-.43,2.48-.63-2.49-1.29-4.91-2.62-7.09-.26-.16-.42-.39-.45-.71-.25-.45-.56-.87-.95-1.21-.53-.47.06-.59.22-.83.26-.4.42-.03.56.12.76.83,1.39,1.76,1.9,2.76.26.14.35.37.35.65Z"/>
    <path class="cls-4" d="m66.36,13.32c-.58.89-.96,1.88-1.37,2.86-.79-.68-.8-.75-.26-2.07.02-.26.05-.51.32-.64.58-1.01,1.19-1.99,1.99-2.84.16-.17.33-.36.49-.05.13.24.76.31.27.79-.38.37-.72.79-.99,1.26-.02.32-.19.54-.45.71Z"/>
    <path class="cls-5" d="m58.9,14.11c-.12-.22-.23-.43-.35-.65.2-1.17.8-2.03,1.95-2.45.33,1.02-.17,2.26-1.13,2.82-.16.09-.31.18-.47.27Z"/>
    <path class="cls-5" d="m65.05,13.47c-.11.21-.21.43-.32.64-1.45-.91-1.85-1.65-1.65-3.11,1.18.42,1.81,1.25,1.97,2.47Z"/>
    <path class="cls-5" d="m52.29,18.61c.15.08.3.16.45.24-.17,1.27-.9,2.09-2.11,2.4-.3.08-.36.01-.31-.28.19-1.18.83-1.98,1.97-2.36Z"/>
    <path class="cls-5" d="m70.88,18.85c.15-.08.3-.16.45-.24,1.11.38,1.76,1.14,1.96,2.31.06.36,0,.42-.35.31-1.2-.36-1.92-1.11-2.06-2.38Z"/>
    <path class="cls-5" d="m56.01,19.77c-.11-.09-.22-.17-.32-.26.03-1.21.6-2.05,1.71-2.55.36-.16.49-.13.47.3-.08,1.24-.73,2.04-1.85,2.51Z"/>
    <path class="cls-5" d="m72.61,16.92c-.24.08-.47.17-.71.25-.7-1.02-.69-2.05-.09-3.11.16-.29.26-.29.44-.02.52.76.72,1.56.44,2.46-.04.14-.06.28-.09.42Z"/>
    <path class="cls-5" d="m51.72,17.18c-.24-.08-.47-.17-.71-.25-.35-1.1-.3-2.13.49-3.04.02-.02.06-.03.08-.05.85,1.02.89,2.06.13,3.35Z"/>
    <path class="cls-5" d="m56.81,12.61c.15.24.3.47.45.71-.86.78-1.83.91-2.9.54-.45-.16-.38-.31-.08-.56.74-.63,1.57-.91,2.54-.68Z"/>
    <path class="cls-5" d="m66.36,13.32c.15-.24.3-.47.45-.71.96-.23,1.78.05,2.52.66.33.27.38.44-.09.6-1.07.36-2.03.22-2.88-.54Z"/>
    <path class="cls-5" d="m66.92,17.98c-.32-.03-.59-.19-.88-.29.1-.64.08-1.32.57-1.85.16-.17.31-.37.49-.52.16-.13.34-.41.54-.29.13.08.13.4.16.62.1.92-.21,1.69-.87,2.33Z"/>
    <path class="cls-5" d="m78.04,27.18c-.35.13-.71.23-1.09.2-.18-1.27.38-2.34,1.55-2.88.3.98.13,1.86-.46,2.68Z"/>
    <path class="cls-5" d="m46.63,27.45c-.35-.09-.7-.18-1.04-.27-.59-.8-.76-1.69-.48-2.65,1.14.38,1.83,1.71,1.52,2.92Z"/>
    <path class="cls-5" d="m46.39,28.48c.4.05.81.09,1.21.14-.26,1.11-.97,1.77-2.06,2.06-.49.13-.57.06-.44-.42.2-.76.63-1.35,1.29-1.78Z"/>
    <path class="cls-5" d="m76.02,28.62c.4-.05.81-.09,1.21-.14.66.43,1.09,1.02,1.29,1.78.12.48.05.55-.44.42-1.08-.29-1.79-.95-2.06-2.05Z"/>
    <path class="cls-5" d="m73.5,24.77c.44.04.77.42.74.87-.03.43-.43.79-.85.75-.45-.04-.78-.45-.73-.92.05-.41.43-.73.84-.7Z"/>
    <path class="cls-5" d="m50.97,25.59c0,.45-.38.81-.81.79-.43-.01-.79-.39-.78-.83,0-.45.37-.8.82-.79.44,0,.78.37.77.83Z"/>
    <path class="cls-5" d="m49.82,19.32c0,.41-.36.77-.77.77-.39,0-.74-.35-.75-.74-.01-.38.33-.74.72-.76.42-.02.79.32.8.73Z"/>
    <path class="cls-5" d="m74.57,20.08c-.42,0-.78-.36-.77-.77,0-.4.34-.72.75-.73.39,0,.75.32.77.71.02.4-.34.78-.75.79Z"/>
    <path class="cls-5" d="m55.28,16.04c-.03.35-.21.58-.58.6-.38.01-.6-.22-.61-.57-.02-.37.22-.61.57-.62.35,0,.58.21.62.59Z"/>
    <path class="cls-5" d="m69.23,17.22c-.42,0-.64-.21-.65-.57-.01-.37.2-.58.58-.59.38-.01.6.21.61.56.01.36-.22.56-.54.6Z"/>
    <path class="cls-5" d="m59.36,20.84c-.06.27-.2.47-.51.46-.28-.01-.44-.2-.44-.46,0-.29.18-.47.49-.45.29.01.41.2.46.46Z"/>
    <path class="cls-5" d="m65.22,20.83c-.06.28-.19.49-.5.47-.28-.01-.44-.2-.45-.46,0-.29.18-.47.49-.46.29,0,.41.19.46.44Z"/>
    <path class="cls-5" d="m76.47,20.63c.27.04.43.18.44.46,0,.29-.14.45-.43.46-.31,0-.49-.16-.48-.47,0-.29.19-.42.46-.45Z"/>
    <path class="cls-5" d="m67.2,23.85c.27.03.46.17.47.44.02.31-.16.48-.47.48-.29,0-.45-.17-.44-.45,0-.27.17-.43.44-.47Z"/>
    <path class="cls-5" d="m56.87,24.3c-.03.3-.16.47-.46.47-.28,0-.46-.15-.47-.43,0-.3.18-.49.48-.48.28,0,.41.2.45.44Z"/>
    <path class="cls-5" d="m47.62,21.13c-.03.27-.19.42-.47.42-.28,0-.45-.16-.44-.45,0-.31.18-.48.49-.46.27.02.42.2.42.49Z"/>
    <path class="cls-5" d="m70.64,11.43c.22.05.38.15.38.39,0,.26-.14.41-.4.4-.23,0-.37-.13-.37-.37,0-.26.16-.38.4-.42Z"/>
    <path class="cls-5" d="m53.39,11.85c-.02.24-.15.37-.39.37-.24,0-.39-.12-.39-.37,0-.27.15-.42.41-.41.23,0,.36.17.37.41Z"/>
  </g>
</svg>